<!DOCTYPE svg PUBLIC "-//W3C//DTD SVG 20010904//EN" "http://www.w3.org/TR/2001/REC-SVG-20010904/DTD/svg10.dtd">
<svg version="1.0" xmlns="http://www.w3.org/2000/svg" width="200px" height="200px" viewBox="0 0 2000 2000" preserveAspectRatio="xMidYMid meet">
<g id="layer101" fill="#fdfdfe" stroke="none">
 <path d="M692 1467 c-160 -160 -292 -299 -292 -307 0 -19 140 -160 160 -160 8 0 83 69 167 152 l153 153 0 -533 0 -532 120 0 120 0 0 532 0 533 153 -153 c84 -83 159 -152 167 -152 20 0 160 141 160 160 0 20 -581 600 -600 600 -8 0 -147 -132 -308 -293z m583 -37 l270 -270 -53 -52 -52 -53 -163 163 c-89 89 -170 162 -180 162 -16 0 -17 -34 -17 -550 l0 -550 -80 0 -80 0 0 550 c0 516 -1 550 -17 550 -10 0 -91 -73 -180 -162 l-163 -163 -52 53 -53 52 270 270 c148 149 272 270 275 270 3 0 127 -121 275 -270z"/>
 <path d="M972 1608 c-16 -16 -15 -38 1 -38 17 0 37 20 37 37 0 16 -22 17 -38 1z"/>
 <path d="M882 1517 c-25 -26 -29 -47 -9 -47 16 0 57 42 57 58 0 20 -25 14 -48 -11z"/>
 <path d="M1080 1517 c0 -16 331 -347 348 -347 30 0 1 36 -156 193 -157 157 -192 185 -192 154z"/>
 <path d="M657 1292 c-92 -93 -113 -122 -84 -122 16 0 207 191 207 208 0 28 -31 7 -123 -86z"/>
 </g>

</svg>