<!DOCTYPE svg PUBLIC "-//W3C//DTD SVG 20010904//EN" "http://www.w3.org/TR/2001/REC-SVG-20010904/DTD/svg10.dtd">
<svg version="1.0" xmlns="http://www.w3.org/2000/svg" width="200px" height="200px" viewBox="0 0 2000 2000" preserveAspectRatio="xMidYMid meet">
<g id="layer101" fill="#ffffff" stroke="none">
 <path d="M532 1307 c-160 -160 -292 -299 -292 -307 0 -20 580 -600 600 -600 19 0 160 140 160 160 0 8 -69 83 -152 167 l-153 153 533 0 532 0 0 120 0 120 -532 0 -533 0 153 153 c83 84 152 159 152 167 0 20 -141 160 -160 160 -8 0 -147 -132 -308 -293z m363 183 l50 -50 -163 -163 c-89 -89 -162 -170 -162 -180 0 -16 34 -17 550 -17 l550 0 0 -80 0 -80 -550 0 c-516 0 -550 -1 -550 -17 0 -10 73 -91 162 -180 l163 -163 -53 -52 -52 -53 -273 273 -272 272 270 270 c148 148 272 270 275 270 3 0 28 -23 55 -50z"/>
 <path d="M637 1272 c-157 -157 -185 -192 -154 -192 16 0 347 331 347 348 0 30 -36 1 -193 -156z"/>
 <path d="M382 994 c4 -20 34 -41 45 -31 10 11 -11 41 -31 45 -12 3 -17 -2 -14 -14z"/>
 <path d="M460 917 c0 -16 42 -57 58 -57 20 0 14 25 -11 48 -26 25 -47 29 -47 9z"/>
 <path d="M610 767 c0 -16 191 -207 208 -207 28 0 7 31 -86 123 -93 92 -122 113 -122 84z"/>
 </g>

</svg>